<svg xmlns="http://www.w3.org/2000/svg" viewBox="0 0 551.034 551.034">
  <defs>
    <radialGradient id="igGradient" cx="30%" cy="100%" r="140%" fx="30%" fy="100%">
      <stop offset="0%"   stop-color="#fdf497"/>
      <stop offset="10%"  stop-color="#fcb045"/>
      <stop offset="25%"  stop-color="#fd5949"/>
      <stop offset="50%"  stop-color="#d6249f"/>
      <stop offset="75%"  stop-color="#8a3ab9"/>
      <stop offset="90%"  stop-color="#405de6"/>
      <stop offset="100%" stop-color="#285AEB"/>
    </radialGradient>
  </defs>

  <!-- Background -->
  <rect width="551.034" height="551.034" rx="122.88" fill="url(#igGradient)" />

  <!-- Camera glyph -->
  <g fill="#fff">
    <path d="M386.878 77.163H164.156c-47.92 0-86.875 38.955-86.875 86.875v222.722c0 47.92 38.955 86.875 86.875 86.875h222.722c47.92 0 86.875-38.955 86.875-86.875V164.038c0-47.92-38.955-86.875-86.875-86.875zm58.222 309.597c0 32.095-26.127 58.222-58.222 58.222H164.156c-32.095 0-58.222-26.127-58.222-58.222V164.038c0-32.095 26.127-58.222 58.222-58.222h222.722c32.095 0 58.222 26.127 58.222 58.222v222.722z"/>
    <path d="M275.517 164.038c-61.47 0-111.479 50.009-111.479 111.479s50.009 111.479 111.479 111.479 111.479-50.009 111.479-111.479-50.009-111.479-111.479-111.479zm0 184.016c-40.022 0-72.537-32.514-72.537-72.537s32.514-72.537 72.537-72.537 72.537 32.514 72.537 72.537-32.514 72.537-72.537 72.537z"/>
    <circle cx="418.31" cy="134.07" r="34.39"/>
  </g>
</svg>
