<?xml version="1.0" encoding="iso-8859-1"?>
<!-- Generator: Adobe Illustrator 29.2.1, SVG Export Plug-In . SVG Version: 9.03 Build 55982)  -->
<svg version="1.1" baseProfile="basic" id="Layer_2"
	 xmlns="http://www.w3.org/2000/svg" xmlns:xlink="http://www.w3.org/1999/xlink" x="0px" y="0px" viewBox="0 0 60 60"
	 xml:space="preserve">
<g>
	<path d="M55.889,18.553c-0.032-1.505-0.085-3.01-0.168-4.512c-0.071-1.283-0.2-2.569-0.747-3.748
		c-0.97-2.089-3.187-3.085-5.338-3.478c-2.611-0.477-5.335-0.497-7.98-0.594c-2.99-0.109-5.983-0.134-8.974-0.073
		c-2.991,0.061-5.981,0.208-8.963,0.443c-2.675,0.211-5.45,0.355-8.046,1.079c-0.378,0.106-0.75,0.232-1.119,0.369
		c-0.01,0.001-0.019-0.001-0.028,0c-2.283,0.321-4.164,2.114-5.092,4.158c-1.173,2.581-1.154,5.466-1.205,8.245
		c-0.109,5.974-0.04,11.952,0.206,17.922c0.113,2.744,0.147,5.655,1.243,8.22c0.442,1.034,1.064,2,1.952,2.706
		c1.044,0.83,2.281,1.141,3.587,1.266c2.88,0.276,5.826,0.152,8.711,0.021c2.995-0.135,5.987-0.336,8.98-0.514
		c3.003-0.179,6.006-0.358,9.008-0.537c2.608-0.156,5.409-0.128,7.793-1.345c4.35-2.22,4.973-7.693,5.433-12.01
		C55.762,30.323,56.012,24.434,55.889,18.553z M53.589,31.045c-0.178,2.583-0.374,5.189-0.768,7.75
		c-0.301,1.961-0.76,3.98-1.872,5.655c-1.208,1.818-3.187,2.576-5.288,2.816c-2.67,0.305-5.384,0.36-8.066,0.52
		c-5.531,0.33-11.073,0.783-16.614,0.892c-1.39,0.027-2.781,0.024-4.171-0.029c-1.168-0.045-2.473-0.028-3.518-0.626
		c-1.889-1.082-2.385-3.707-2.609-5.676c-0.313-2.746-0.324-5.545-0.398-8.306c-0.074-2.76-0.11-5.521-0.109-8.282
		c0.002-2.75-0.015-5.515,0.133-8.261c0.121-2.236,0.532-4.631,2.199-6.265c0.047-0.046,0.098-0.08,0.146-0.123
		c0.175,0.008,0.364-0.038,0.555-0.166c1.989-1.32,4.357-1.749,6.692-2.002c2.736-0.297,5.484-0.497,8.232-0.634
		c5.526-0.275,11.067-0.252,16.591,0.055c2.107,0.117,4.45,0.09,6.42,0.958c0.854,0.377,1.585,0.953,2.012,1.797
		c0.504,0.995,0.526,2.182,0.582,3.271C54.023,19.938,53.972,25.503,53.589,31.045z"/>
	<path d="M34.728,28.687c-0.621-0.954-1.248-1.904-1.872-2.857c1.112-1.226,2.238-2.441,3.388-3.632
		c1.753-1.814,3.55-3.584,5.387-5.313c0.939-0.884-0.477-2.296-1.414-1.414c-2.943,2.77-5.76,5.667-8.481,8.651
		c-0.31-0.471-0.617-0.945-0.928-1.416c-0.657-0.995-1.316-1.988-1.976-2.98c-0.316-0.476-0.625-1.003-0.975-1.491
		c-0.094-0.321-0.332-0.593-0.623-0.73c-0.09-0.089-0.173-0.188-0.271-0.266c-0.983-0.783-2.194-0.59-3.353-0.46
		c-1.404,0.157-2.808,0.315-4.212,0.472c-0.537,0.06-1,0.417-1,1c0,0.362,0.248,0.761,0.593,0.925
		c2.437,3.731,4.874,7.463,7.311,11.194c-1.377,1.676-2.724,3.376-4.033,5.107c-1.545,2.042-3.038,4.121-4.484,6.235
		c-0.728,1.065,1.004,2.067,1.727,1.01c2.493-3.646,5.139-7.185,7.929-10.607c0.964,1.476,1.927,2.951,2.891,4.427
		c0.658,1.008,1.316,2.015,1.974,3.023c0.541,0.828,1.039,1.861,1.788,2.525c0.955,0.848,2.195,0.666,3.368,0.574
		c1.366-0.107,2.732-0.215,4.098-0.322c0.379-0.03,0.632-0.235,0.786-0.495c0.262-0.28,0.367-0.688,0.098-1.115
		C39.899,36.699,37.327,32.684,34.728,28.687z M38.761,38.683c-0.004-0.01-0.006-0.022-0.01-0.032
		c0.006,0.009,0.012,0.019,0.018,0.028C38.766,38.68,38.763,38.681,38.761,38.683z"/>
	<path d="M50.12,11.29c-0.565,0.155-0.788,0.696-0.698,1.23c0.339,2.017,0.389,4.172,0.178,6.255c-0.053,0.522,0.498,1.022,1,1
		c0.587-0.026,0.944-0.441,1-1c0.229-2.268,0.127-4.541-0.25-6.787C51.26,11.456,50.602,11.158,50.12,11.29z"/>
</g>
</svg>